/videos/4d5751f8-7ad4-c364-80a1-9ea4718fb8be/hls1/main/534.ts

{"Protocol":0,"Id":"4d5751f87ad4c36480a19ea4718fb8be","Path":"/data/tv/Resident Alien/Season 2/Resident.Alien.S02E01.Old.Friends.EAC3.5.1.1080p.Bluray.x265-iVy.mkv","EncoderPath":null,"EncoderProtocol":null,"Type":0,"Container":"mkv,webm","Size":864893056,"Name":"Resident.Alien.S02E01.Old.Friends.EAC3.5.1.1080p.Bluray.x265-iVy","IsRemote":false,"ETag":"785f4c977cf8096008f408bd895990de","RunTimeTicks":27721449472,"ReadAtNativeFramerate":false,"IgnoreDts":false,"IgnoreIndex":false,"GenPtsInput":false,"SupportsTranscoding":true,"SupportsDirectStream":true,"SupportsDirectPlay":true,"IsInfiniteStream":false,"RequiresOpening":false,"OpenToken":null,"RequiresClosing":false,"LiveStreamId":null,"BufferMs":null,"RequiresLooping":false,"SupportsProbing":true,"VideoType":0,"IsoType":null,"Video3DFormat":null,"MediaStreams":[{"Codec":"hevc","CodecTag":null,"Language":null,"ColorRange":null,"ColorSpace":"bt709","ColorTransfer":"bt709","ColorPrimaries":"bt709","DvVersionMajor":null,"DvVersionMinor":null,"DvProfile":null,"DvLevel":null,"RpuPresentFlag":null,"ElPresentFlag":null,"BlPresentFlag":null,"DvBlSignalCompatibilityId":null,"Comment":null,"TimeBase":"1/1000","CodecTimeBase":null,"Title":null,"VideoRange":"SDR","VideoRangeType":"SDR","VideoDoViTitle":null,"LocalizedUndefined":null,"LocalizedDefault":null,"LocalizedForced":null,"LocalizedExternal":null,"DisplayTitle":"1080p HEVC SDR","NalLengthSize":null,"IsInterlaced":false,"IsAVC":null,"ChannelLayout":null,"BitRate":2495953,"BitDepth":8,"RefFrames":1,"PacketLength":null,"Channels":null,"SampleRate":null,"IsDefault":true,"IsForced":false,"Height":1080,"Width":1920,"AverageFrameRate":23.976025,"RealFrameRate":23.976025,"Profile":"Main","Type":1,"AspectRatio":"16:9","Index":0,"Score":null,"IsExternal":false,"DeliveryMethod":null,"DeliveryUrl":null,"IsExternalUrl":null,"IsTextSubtitleStream":false,"SupportsExternalStream":false,"Path":null,"PixelFormat":"yuv420p","Level":120,"IsAnamorphic":null},{"Codec":"eac3","CodecTag":null,"Language":"eng","ColorRange":null,"ColorSpace":null,"ColorTransfer":null,"ColorPrimaries":null,"DvVersionMajor":null,"DvVersionMinor":null,"DvProfile":null,"DvLevel":null,"RpuPresentFlag":null,"ElPresentFlag":null,"BlPresentFlag":null,"DvBlSignalCompatibilityId":null,"Comment":null,"TimeBase":"1/1000","CodecTimeBase":null,"Title":null,"VideoRange":null,"VideoRangeType":null,"VideoDoViTitle":null,"LocalizedUndefined":null,"LocalizedDefault":null,"LocalizedForced":null,"LocalizedExternal":null,"DisplayTitle":"English - Dolby Digital\u002B - 5.1 - Default","NalLengthSize":null,"IsInterlaced":false,"IsAVC":null,"ChannelLayout":"5.1","BitRate":640000,"BitDepth":null,"RefFrames":null,"PacketLength":null,"Channels":6,"SampleRate":48000,"IsDefault":true,"IsForced":false,"Height":null,"Width":null,"AverageFrameRate":null,"RealFrameRate":null,"Profile":null,"Type":0,"AspectRatio":null,"Index":1,"Score":null,"IsExternal":false,"DeliveryMethod":null,"DeliveryUrl":null,"IsExternalUrl":null,"IsTextSubtitleStream":false,"SupportsExternalStream":false,"Path":null,"PixelFormat":null,"Level":0,"IsAnamorphic":null},{"Codec":"PGSSUB","CodecTag":null,"Language":"eng","ColorRange":null,"ColorSpace":null,"ColorTransfer":null,"ColorPrimaries":null,"DvVersionMajor":null,"DvVersionMinor":null,"DvProfile":null,"DvLevel":null,"RpuPresentFlag":null,"ElPresentFlag":null,"BlPresentFlag":null,"DvBlSignalCompatibilityId":null,"Comment":null,"TimeBase":"1/1000","CodecTimeBase":null,"Title":"English PGS SDH","VideoRange":null,"VideoRangeType":null,"VideoDoViTitle":null,"LocalizedUndefined":"Undefined","LocalizedDefault":"Default","LocalizedForced":"Forced","LocalizedExternal":"External","DisplayTitle":"English PGS SDH - PGSSUB","NalLengthSize":null,"IsInterlaced":false,"IsAVC":null,"ChannelLayout":null,"BitRate":null,"BitDepth":null,"RefFrames":null,"PacketLength":null,"Channels":null,"SampleRate":null,"IsDefault":false,"IsForced":false,"Height":null,"Width":null,"AverageFrameRate":null,"RealFrameRate":null,"Profile":null,"Type":2,"AspectRatio":null,"Index":2,"Score":null,"IsExternal":false,"DeliveryMethod":null,"DeliveryUrl":null,"IsExternalUrl":null,"IsTextSubtitleStream":false,"SupportsExternalStream":false,"Path":null,"PixelFormat":null,"Level":0,"IsAnamorphic":null},{"Codec":"ass","CodecTag":null,"Language":"eng","ColorRange":null,"ColorSpace":null,"ColorTransfer":null,"ColorPrimaries":null,"DvVersionMajor":null,"DvVersionMinor":null,"DvProfile":null,"DvLevel":null,"RpuPresentFlag":null,"ElPresentFlag":null,"BlPresentFlag":null,"DvBlSignalCompatibilityId":null,"Comment":null,"TimeBase":"1/1000","CodecTimeBase":null,"Title":"English Text","VideoRange":null,"VideoRangeType":null,"VideoDoViTitle":null,"LocalizedUndefined":"Undefined","LocalizedDefault":"Default","LocalizedForced":"Forced","LocalizedExternal":"External","DisplayTitle":"English Text - ASS","NalLengthSize":null,"IsInterlaced":false,"IsAVC":null,"ChannelLayout":null,"BitRate":null,"BitDepth":null,"RefFrames":null,"PacketLength":null,"Channels":null,"SampleRate":null,"IsDefault":false,"IsForced":false,"Height":null,"Width":null,"AverageFrameRate":null,"RealFrameRate":null,"Profile":null,"Type":2,"AspectRatio":null,"Index":3,"Score":null,"IsExternal":false,"DeliveryMethod":null,"DeliveryUrl":null,"IsExternalUrl":null,"IsTextSubtitleStream":true,"SupportsExternalStream":true,"Path":null,"PixelFormat":null,"Level":0,"IsAnamorphic":null},{"Codec":"ass","CodecTag":null,"Language":"eng","ColorRange":null,"ColorSpace":null,"ColorTransfer":null,"ColorPrimaries":null,"DvVersionMajor":null,"DvVersionMinor":null,"DvProfile":null,"DvLevel":null,"RpuPresentFlag":null,"ElPresentFlag":null,"BlPresentFlag":null,"DvBlSignalCompatibilityId":null,"Comment":null,"TimeBase":"1/1000","CodecTimeBase":null,"Title":"English Text SDH","VideoRange":null,"VideoRangeType":null,"VideoDoViTitle":null,"LocalizedUndefined":"Undefined","LocalizedDefault":"Default","LocalizedForced":"Forced","LocalizedExternal":"External","DisplayTitle":"English Text SDH - ASS","NalLengthSize":null,"IsInterlaced":false,"IsAVC":null,"ChannelLayout":null,"BitRate":null,"BitDepth":null,"RefFrames":null,"PacketLength":null,"Channels":null,"SampleRate":null,"IsDefault":false,"IsForced":false,"Height":null,"Width":null,"AverageFrameRate":null,"RealFrameRate":null,"Profile":null,"Type":2,"AspectRatio":null,"Index":4,"Score":null,"IsExternal":false,"DeliveryMethod":null,"DeliveryUrl":null,"IsExternalUrl":null,"IsTextSubtitleStream":true,"SupportsExternalStream":true,"Path":null,"PixelFormat":null,"Level":0,"IsAnamorphic":null}],"MediaAttachments":[],"Formats":[],"Bitrate":3135953,"Timestamp":null,"RequiredHttpHeaders":{},"TranscodingUrl":null,"TranscodingSubProtocol":null,"TranscodingContainer":null,"AnalyzeDurationMs":null,"DefaultAudioStreamIndex":null,"DefaultSubtitleStreamIndex":null}

/usr/lib/jellyfin-ffmpeg/ffmpeg -analyzeduration 200M -ss 00:26:42.000 -f matroska,webm -autorotate 0 -i file:"/data/tv/Resident Alien/Season 2/Resident.Alien.S02E01.Old.Friends.EAC3.5.1.1080p.Bluray.x265-iVy.mkv" -map_metadata -1 -map_chapters -1 -threads 0 -map 0:0 -map 0:1 -map -0:s -codec:v:0 libx264 -preset veryfast -crf 23 -maxrate 8319843 -bufsize 16639686 -x264opts:0 subme=0:me_range=4:rc_lookahead=10:me=dia:no_chroma_me:8x8dct=0:partitions=none -force_key_frames:0 "expr:gte(t,1602+n_forced*3)" -sc_threshold:v:0 0 -vf "setparams=color_primaries=bt709:color_trc=bt709:colorspace=bt709,scale=trunc(min(max(iw\,ih*a)\,min(1920\,1080*a))/2)*2:trunc(min(max(iw/a\,ih)\,min(1920/a\,1080))/2)*2,format=yuv420p" -codec:a:0 libfdk_aac -ac 2 -ab 384000 -af "volume=2" -copyts -avoid_negative_ts disabled -max_muxing_queue_size 2048 -f hls -max_delay 5000000 -hls_time 3 -hls_segment_type mpegts -start_number 534 -hls_segment_filename "/config/data/transcodes/5649425cf0d522a564d3754a5926e5c1%d.ts" -hls_playlist_type vod -hls_list_size 0 -y "/config/data/transcodes/5649425cf0d522a564d3754a5926e5c1.m3u8"


ffmpeg version 5.1.4-Jellyfin Copyright (c) 2000-2023 the FFmpeg developers
  built with gcc 11 (Ubuntu 11.4.0-1ubuntu1~22.04)
  configuration: --prefix=/usr/lib/jellyfin-ffmpeg --target-os=linux --extra-libs=-lfftw3f --extra-version=Jellyfin --disable-doc --disable-ffplay --disable-ptx-compression --disable-static --disable-libxcb --disable-sdl2 --disable-xlib --enable-lto --enable-gpl --enable-version3 --enable-shared --enable-gmp --enable-gnutls --enable-chromaprint --enable-libdrm --enable-libass --enable-libfreetype --enable-libfribidi --enable-libfontconfig --enable-libbluray --enable-libmp3lame --enable-libopus --enable-libtheora --enable-libvorbis --enable-libopenmpt --enable-libdav1d --enable-libsvtav1 --enable-libwebp --enable-libvpx --enable-libx264 --enable-libx265 --enable-libzvbi --enable-libzimg --enable-libfdk-aac --arch=amd64 --enable-libshaderc --enable-libplacebo --enable-vulkan --enable-opencl --enable-vaapi --enable-amf --enable-libmfx --enable-ffnvcodec --enable-cuda --enable-cuda-llvm --enable-cuvid --enable-nvdec --enable-nvenc
  libavutil      57. 28.100 / 57. 28.100
  libavcodec     59. 37.100 / 59. 37.100
  libavformat    59. 27.100 / 59. 27.100
  libavdevice    59.  7.100 / 59.  7.100
  libavfilter     8. 44.100 /  8. 44.100
  libswscale      6.  7.100 /  6.  7.100
  libswresample   4.  7.100 /  4.  7.100
  libpostproc    56.  6.100 / 56.  6.100
Input #0, matroska,webm, from 'file:/data/tv/Resident Alien/Season 2/Resident.Alien.S02E01.Old.Friends.EAC3.5.1.1080p.Bluray.x265-iVy.mkv':
  Metadata:
    creation_time   : 2024-01-20T10:14:19.000000Z
    ENCODER         : Lavf59.27.100
  Duration: 00:46:12.15, start: 0.000000, bitrate: 2495 kb/s
  Chapters:
    Chapter #0:0: start 0.000000, end 38.080000
      Metadata:
        title           : Chapter 1
    Chapter #0:1: start 38.080000, end 715.298000
      Metadata:
        title           : Chapter 2
    Chapter #0:2: start 715.298000, end 1092.550000
      Metadata:
        title           : Chapter 3
    Chapter #0:3: start 1092.550000, end 1579.036000
      Metadata:
        title           : Chapter 4
    Chapter #0:4: start 1579.036000, end 1836.126000
      Metadata:
        title           : Chapter 5
    Chapter #0:5: start 1836.126000, end 2369.701000
      Metadata:
        title           : Chapter 6
    Chapter #0:6: start 2369.701000, end 2748.913000
      Metadata:
        title           : Chapter 7
    Chapter #0:7: start 2748.913000, end 2772.103000
      Metadata:
        title           : Chapter 8
  Stream #0:0: Video: hevc (Main), yuv420p(tv, bt709), 1920x1080 [SAR 1:1 DAR 16:9], 23.98 fps, 23.98 tbr, 1k tbn (default)
    Metadata:
      DURATION        : 00:46:12.145000000
  Stream #0:1(eng): Audio: eac3, 48000 Hz, 5.1(side), fltp, 640 kb/s (default)
    Metadata:
      DURATION        : 00:46:12.068000000
  Stream #0:2(eng): Subtitle: hdmv_pgs_subtitle, 1920x1080
    Metadata:
      title           : English PGS SDH
      DURATION        : 00:46:03.511000000
  Stream #0:3(eng): Subtitle: ass
    Metadata:
      title           : English Text
      DURATION        : 00:46:03.511000000
  Stream #0:4(eng): Subtitle: ass
    Metadata:
      title           : English Text SDH
      DURATION        : 00:46:03.511000000
Stream mapping:
  Stream #0:0 -> #0:0 (hevc (native) -> h264 (libx264))
  Stream #0:1 -> #0:1 (eac3 (native) -> aac (libfdk_aac))
Press [q] to stop, [?] for help
[libx264 @ 0x5638d27c8bc0] using SAR=1/1
[libx264 @ 0x5638d27c8bc0] using cpu capabilities: MMX2 SSE2Fast SSSE3 SSE4.2 AVX FMA3 BMI2 AVX2
[libx264 @ 0x5638d27c8bc0] profile Main, level 4.0, 4:2:0, 8-bit
[libx264 @ 0x5638d27c8bc0] 264 - core 163 r3060 5db6aa6 - H.264/MPEG-4 AVC codec - Copyleft 2003-2021 - http://www.videolan.org/x264.html - options: cabac=1 ref=1 deblock=1:0:0 analyse=0x1:0 me=dia subme=0 psy=1 psy_rd=1.00:0.00 mixed_ref=0 me_range=4 chroma_me=0 trellis=0 8x8dct=0 cqm=0 deadzone=21,11 fast_pskip=1 chroma_qp_offset=0 threads=12 lookahead_threads=2 sliced_threads=0 nr=0 decimate=1 interlaced=0 bluray_compat=0 constrained_intra=0 bframes=3 b_pyramid=2 b_adapt=1 b_bias=0 direct=1 weightb=1 open_gop=0 weightp=1 keyint=250 keyint_min=23 scenecut=0 intra_refresh=0 rc_lookahead=10 rc=crf mbtree=1 crf=23.0 qcomp=0.60 qpmin=0 qpmax=69 qpstep=4 vbv_maxrate=8319 vbv_bufsize=16639 crf_max=0.0 nal_hrd=none filler=0 ip_ratio=1.40 aq=1:1.00
Output #0, hls, to '/config/data/transcodes/5649425cf0d522a564d3754a5926e5c1.m3u8':
  Metadata:
    encoder         : Lavf59.27.100
  Stream #0:0: Video: h264, yuv420p(tv, bt709, progressive), 1920x1080 [SAR 1:1 DAR 16:9], q=2-31, 23.98 fps, 90k tbn (default)
    Metadata:
      encoder         : Lavc59.37.100 libx264
    Side data:
      cpb: bitrate max/min/avg: 8319000/0/0 buffer size: 16639000 vbv_delay: N/A
  Stream #0:1: Audio: aac, 48000 Hz, stereo, s16, 384 kb/s (default)
    Metadata:
      encoder         : Lavc59.37.100 libfdk_aac
frame=    1 fps=0.0 q=0.0 size=N/A time=00:00:00.00 bitrate=N/A speed=   0x    
frame=   20 fps= 17 q=0.0 size=N/A time=00:00:00.83 bitrate=N/A speed=0.714x    
frame=   38 fps= 23 q=28.0 size=N/A time=00:00:01.57 bitrate=N/A speed=0.947x    
frame=   65 fps= 30 q=28.0 size=N/A time=00:00:02.68 bitrate=N/A speed=1.24x    
frame=   90 fps= 34 q=28.0 size=N/A time=00:00:03.75 bitrate=N/A speed= 1.4x    
frame=  112 fps= 35 q=28.0 size=N/A time=00:00:04.65 bitrate=N/A speed=1.46x    
frame=  131 fps= 35 q=28.0 size=N/A time=00:00:05.44 bitrate=N/A speed=1.47x    
frame=  146 fps= 34 q=28.0 size=N/A time=00:00:06.08 bitrate=N/A speed=1.43x    
frame=  162 fps= 34 q=28.0 size=N/A time=00:00:06.76 bitrate=N/A speed=1.42x    
frame=  178 fps= 34 q=28.0 size=N/A time=00:00:07.42 bitrate=N/A speed= 1.4x    
frame=  200 fps= 34 q=28.0 size=N/A time=00:00:08.32 bitrate=N/A speed=1.43x    
frame=  218 fps= 35 q=28.0 size=N/A time=00:00:09.08 bitrate=N/A speed=1.44x    
frame=  238 fps= 35 q=28.0 size=N/A time=00:00:09.92 bitrate=N/A speed=1.45x    
frame=  258 fps= 35 q=28.0 size=N/A time=00:00:10.75 bitrate=N/A speed=1.46x    
frame=  276 fps= 35 q=28.0 size=N/A time=00:00:11.49 bitrate=N/A speed=1.45x    
[hls @ 0x5638d27c7c40] Opening '/config/data/transcodes/5649425cf0d522a564d3754a5926e5c1534.ts' for writing
frame=  299 fps= 36 q=28.0 size=N/A time=00:00:12.45 bitrate=N/A speed=1.48x    
frame=  310 fps= 35 q=28.0 size=N/A time=00:00:12.92 bitrate=N/A speed=1.45x    
frame=  319 fps= 34 q=28.0 size=N/A time=00:00:13.29 bitrate=N/A speed= 1.4x    
frame=  334 fps= 33 q=28.0 size=N/A time=00:00:13.93 bitrate=N/A speed=1.39x    
frame=  346 fps= 33 q=28.0 size=N/A time=00:00:14.40 bitrate=N/A speed=1.36x    
frame=  361 fps= 32 q=28.0 size=N/A time=00:00:15.04 bitrate=N/A speed=1.35x    
frame=  370 fps= 32 q=28.0 size=N/A time=00:00:15.42 bitrate=N/A speed=1.32x    
frame=  383 fps= 31 q=28.0 size=N/A time=00:00:15.97 bitrate=N/A speed=1.31x    
frame=  399 fps= 31 q=28.0 size=N/A time=00:00:16.64 bitrate=N/A speed= 1.3x    
frame=  421 fps= 32 q=28.0 size=N/A time=00:00:17.53 bitrate=N/A speed=1.32x    
frame=  437 fps= 31 q=28.0 size=N/A time=00:00:18.21 bitrate=N/A speed= 1.3x    
frame=  451 fps= 31 q=28.0 size=N/A time=00:00:18.79 bitrate=N/A speed= 1.3x    
frame=  466 fps= 31 q=28.0 size=N/A time=00:00:19.39 bitrate=N/A speed=1.29x    
frame=  482 fps= 31 q=28.0 size=N/A time=00:00:20.09 bitrate=N/A speed= 1.3x    
frame=  501 fps= 31 q=28.0 size=N/A time=00:00:20.90 bitrate=N/A speed= 1.3x    
frame=  513 fps= 31 q=28.0 size=N/A time=00:00:21.37 bitrate=N/A speed=1.29x    
frame=  522 fps= 31 q=28.0 size=N/A time=00:00:21.73 bitrate=N/A speed=1.27x    
[hls @ 0x5638d27c7c40] Opening '/config/data/transcodes/5649425cf0d522a564d3754a5926e5c1535.ts' for writing
frame=  534 fps= 30 q=28.0 size=N/A time=00:00:22.27 bitrate=N/A speed=1.27x    
frame=  557 fps= 31 q=28.0 size=N/A time=00:00:23.23 bitrate=N/A speed=1.28x    
frame=  565 fps= 30 q=28.0 size=N/A time=00:00:23.55 bitrate=N/A speed=1.26x    
frame=  578 fps= 30 q=28.0 size=N/A time=00:00:24.10 bitrate=N/A speed=1.26x    
frame=  597 fps= 30 q=28.0 size=N/A time=00:00:24.89 bitrate=N/A speed=1.26x    
frame=  611 fps= 30 q=28.0 size=N/A time=00:00:25.47 bitrate=N/A speed=1.26x    
frame=  625 fps= 30 q=28.0 size=N/A time=00:00:26.04 bitrate=N/A speed=1.25x    
frame=  639 fps= 30 q=28.0 size=N/A time=00:00:26.62 bitrate=N/A speed=1.24x    
frame=  658 fps= 30 q=28.0 size=N/A time=00:00:27.43 bitrate=N/A speed=1.25x    
frame=  666 fps= 30 q=28.0 size=N/A time=00:00:27.77 bitrate=N/A speed=1.23x    
frame=  685 fps= 30 q=28.0 size=N/A time=00:00:28.54 bitrate=N/A speed=1.24x    
frame=  698 fps= 30 q=28.0 size=N/A time=00:00:29.09 bitrate=N/A speed=1.23x    
frame=  714 fps= 30 q=28.0 size=N/A time=00:00:29.76 bitrate=N/A speed=1.24x    
frame=  738 fps= 30 q=28.0 size=N/A time=00:00:30.76 bitrate=N/A speed=1.25x    
frame=  754 fps= 30 q=28.0 size=N/A time=00:00:31.42 bitrate=N/A speed=1.25x    
frame=  767 fps= 30 q=28.0 size=N/A time=00:00:31.97 bitrate=N/A speed=1.24x    
[hls @ 0x5638d27c7c40] Opening '/config/data/transcodes/5649425cf0d522a564d3754a5926e5c1536.ts' for writing
frame=  782 fps= 30 q=28.0 size=N/A time=00:00:32.61 bitrate=N/A speed=1.24x    
frame=  804 fps= 30 q=28.0 size=N/A time=00:00:33.51 bitrate=N/A speed=1.25x    
frame=  819 fps= 30 q=28.0 size=N/A time=00:00:34.15 bitrate=N/A speed=1.25x    
frame=  842 fps= 30 q=28.0 size=N/A time=00:00:35.07 bitrate=N/A speed=1.26x    
frame=  857 fps= 30 q=28.0 size=N/A time=00:00:35.75 bitrate=N/A speed=1.26x    
frame=  871 fps= 30 q=28.0 size=N/A time=00:00:36.33 bitrate=N/A speed=1.25x    
frame=  882 fps= 30 q=28.0 size=N/A time=00:00:36.77 bitrate=N/A speed=1.24x    
frame=  896 fps= 30 q=28.0 size=N/A time=00:00:37.35 bitrate=N/A speed=1.24x    
frame=  918 fps= 30 q=28.0 size=N/A time=00:00:38.27 bitrate=N/A speed=1.25x    
frame=  930 fps= 30 q=28.0 size=N/A time=00:00:38.78 bitrate=N/A speed=1.25x    
frame=  948 fps= 30 q=28.0 size=N/A time=00:00:39.53 bitrate=N/A speed=1.25x    
frame=  958 fps= 30 q=28.0 size=N/A time=00:00:39.93 bitrate=N/A speed=1.24x    
frame=  971 fps= 30 q=28.0 size=N/A time=00:00:40.49 bitrate=N/A speed=1.24x    
frame=  982 fps= 30 q=28.0 size=N/A time=00:00:40.93 bitrate=N/A speed=1.23x    
frame= 1001 fps= 30 q=28.0 size=N/A time=00:00:41.72 bitrate=N/A speed=1.24x    
frame= 1013 fps= 30 q=28.0 size=N/A time=00:00:42.24 bitrate=N/A speed=1.23x    
frame= 1025 fps= 29 q=28.0 size=N/A time=00:00:42.73 bitrate=N/A speed=1.23x    
[hls @ 0x5638d27c7c40] Opening '/config/data/transcodes/5649425cf0d522a564d3754a5926e5c1537.ts' for writing
frame= 1044 fps= 29 q=28.0 size=N/A time=00:00:43.52 bitrate=N/A speed=1.23x    
frame= 1065 fps= 30 q=28.0 size=N/A time=00:00:44.41 bitrate=N/A speed=1.23x    
frame= 1085 fps= 30 q=28.0 size=N/A time=00:00:45.24 bitrate=N/A speed=1.24x    
frame= 1097 fps= 30 q=28.0 size=N/A time=00:00:45.73 bitrate=N/A speed=1.23x    
frame= 1111 fps= 30 q=28.0 size=N/A time=00:00:46.33 bitrate=N/A speed=1.23x    
frame= 1122 fps= 29 q=28.0 size=N/A time=00:00:46.78 bitrate=N/A speed=1.23x    
frame= 1130 fps= 29 q=28.0 size=N/A time=00:00:47.10 bitrate=N/A speed=1.22x    
frame= 1144 fps= 29 q=28.0 size=N/A time=00:00:47.72 bitrate=N/A speed=1.22x    
frame= 1159 fps= 29 q=28.0 size=N/A time=00:00:48.32 bitrate=N/A speed=1.21x    
frame= 1173 fps= 29 q=28.0 size=N/A time=00:00:48.89 bitrate=N/A speed=1.21x    
frame= 1183 fps= 29 q=28.0 size=N/A time=00:00:49.32 bitrate=N/A speed=1.21x    
frame= 1193 fps= 29 q=28.0 size=N/A time=00:00:49.72 bitrate=N/A speed= 1.2x    
frame= 1210 fps= 29 q=28.0 size=N/A time=00:00:50.47 bitrate=N/A speed= 1.2x    
frame= 1227 fps= 29 q=28.0 size=N/A time=00:00:51.17 bitrate=N/A speed= 1.2x    
frame= 1241 fps= 29 q=28.0 size=N/A time=00:00:51.75 bitrate=N/A speed= 1.2x    
frame= 1264 fps= 29 q=28.0 size=N/A time=00:00:52.71 bitrate=N/A speed=1.21x    
frame= 1270 fps= 29 q=28.0 size=N/A time=00:00:52.97 bitrate=N/A speed= 1.2x    
[hls @ 0x5638d27c7c40] Opening '/config/data/transcodes/5649425cf0d522a564d3754a5926e5c1538.ts' for writing
frame= 1286 fps= 29 q=28.0 size=N/A time=00:00:53.63 bitrate=N/A speed= 1.2x    
frame= 1295 fps= 29 q=28.0 size=N/A time=00:00:53.99 bitrate=N/A speed= 1.2x    
frame= 1313 fps= 29 q=28.0 size=N/A time=00:00:54.76 bitrate=N/A speed= 1.2x    
frame= 1328 fps= 29 q=28.0 size=N/A time=00:00:55.36 bitrate=N/A speed= 1.2x    
frame= 1333 fps= 28 q=28.0 size=N/A time=00:00:55.59 bitrate=N/A speed=1.19x    
frame= 1351 fps= 29 q=28.0 size=N/A time=00:00:56.32 bitrate=N/A speed=1.19x    
frame= 1370 fps= 29 q=28.0 size=N/A time=00:00:57.13 bitrate=N/A speed=1.19x    
frame= 1382 fps= 29 q=28.0 size=N/A time=00:00:57.64 bitrate=N/A speed=1.19x    
frame= 1401 fps= 29 q=28.0 size=N/A time=00:00:58.41 bitrate=N/A speed=1.19x    
frame= 1409 fps= 28 q=28.0 size=N/A time=00:00:58.75 bitrate=N/A speed=1.19x    
frame= 1424 fps= 28 q=28.0 size=N/A time=00:00:59.39 bitrate=N/A speed=1.19x    
frame= 1441 fps= 29 q=28.0 size=N/A time=00:01:00.09 bitrate=N/A speed=1.19x    
frame= 1460 fps= 29 q=28.0 size=N/A time=00:01:00.86 bitrate=N/A speed=1.19x    
frame= 1484 fps= 29 q=28.0 size=N/A time=00:01:01.88 bitrate=N/A speed= 1.2x    
frame= 1504 fps= 29 q=28.0 size=N/A time=00:01:02.72 bitrate=N/A speed= 1.2x    
frame= 1522 fps= 29 q=28.0 size=N/A time=00:01:03.46 bitrate=N/A speed= 1.2x    
[hls @ 0x5638d27c7c40] Opening '/config/data/transcodes/5649425cf0d522a564d3754a5926e5c1539.ts' for writing
frame= 1542 fps= 29 q=28.0 size=N/A time=00:01:04.29 bitrate=N/A speed=1.21x    
frame= 1561 fps= 29 q=28.0 size=N/A time=00:01:05.08 bitrate=N/A speed=1.21x    
frame= 1583 fps= 29 q=28.0 size=N/A time=00:01:06.02 bitrate=N/A speed=1.22x    
frame= 1607 fps= 29 q=28.0 size=N/A time=00:01:07.00 bitrate=N/A speed=1.22x    
frame= 1631 fps= 29 q=28.0 size=N/A time=00:01:08.01 bitrate=N/A speed=1.23x    
frame= 1651 fps= 30 q=28.0 size=N/A time=00:01:08.84 bitrate=N/A speed=1.23x    
frame= 1672 fps= 30 q=28.0 size=N/A time=00:01:09.73 bitrate=N/A speed=1.23x    
frame= 1686 fps= 30 q=28.0 size=N/A time=00:01:10.31 bitrate=N/A speed=1.23x    
frame= 1708 fps= 30 q=28.0 size=N/A time=00:01:11.23 bitrate=N/A speed=1.24x    
frame= 1716 fps= 30 q=28.0 size=N/A time=00:01:11.55 bitrate=N/A speed=1.23x    
frame= 1743 fps= 30 q=28.0 size=N/A time=00:01:12.68 bitrate=N/A speed=1.24x    
frame= 1764 fps= 30 q=28.0 size=N/A time=00:01:13.57 bitrate=N/A speed=1.24x    
[hls @ 0x5638d27c7c40] Opening '/config/data/transcodes/5649425cf0d522a564d3754a5926e5c1540.ts' for writing
frame= 1787 fps= 30 q=28.0 size=N/A time=00:01:14.53 bitrate=N/A speed=1.25x    
frame= 1812 fps= 30 q=28.0 size=N/A time=00:01:15.56 bitrate=N/A speed=1.26x    
frame= 1842 fps= 30 q=28.0 size=N/A time=00:01:16.80 bitrate=N/A speed=1.27x    
frame= 1856 fps= 30 q=28.0 size=N/A time=00:01:17.41 bitrate=N/A speed=1.27x    
frame= 1879 fps= 30 q=28.0 size=N/A time=00:01:18.37 bitrate=N/A speed=1.27x    
frame= 1889 fps= 30 q=28.0 size=N/A time=00:01:18.78 bitrate=N/A speed=1.27x    
frame= 1910 fps= 30 q=28.0 size=N/A time=00:01:19.65 bitrate=N/A speed=1.27x    
frame= 1934 fps= 31 q=28.0 size=N/A time=00:01:20.64 bitrate=N/A speed=1.27x    
frame= 1960 fps= 31 q=28.0 size=N/A time=00:01:21.72 bitrate=N/A speed=1.28x    
frame= 1986 fps= 31 q=28.0 size=N/A time=00:01:22.81 bitrate=N/A speed=1.29x    
frame= 2001 fps= 31 q=28.0 size=N/A time=00:01:23.45 bitrate=N/A speed=1.29x    
frame= 2025 fps= 31 q=28.0 size=N/A time=00:01:24.45 bitrate=N/A speed=1.29x    
[hls @ 0x5638d27c7c40] Opening '/config/data/transcodes/5649425cf0d522a564d3754a5926e5c1541.ts' for writing
frame= 2043 fps= 31 q=28.0 size=N/A time=00:01:25.18 bitrate=N/A speed=1.29x    
frame= 2057 fps= 31 q=28.0 size=N/A time=00:01:25.80 bitrate=N/A speed=1.29x    
frame= 2078 fps= 31 q=28.0 size=N/A time=00:01:26.65 bitrate=N/A speed=1.29x    
frame= 2092 fps= 31 q=28.0 size=N/A time=00:01:27.23 bitrate=N/A speed=1.29x    
frame= 2108 fps= 31 q=28.0 size=N/A time=00:01:27.91 bitrate=N/A speed=1.29x    
frame= 2128 fps= 31 q=28.0 size=N/A time=00:01:28.74 bitrate=N/A speed= 1.3x    
frame= 2151 fps= 31 q=28.0 size=N/A time=00:01:29.70 bitrate=N/A speed= 1.3x    
frame= 2166 fps= 31 q=28.0 size=N/A time=00:01:30.34 bitrate=N/A speed= 1.3x    
frame= 2184 fps= 31 q=28.0 size=N/A time=00:01:31.07 bitrate=N/A speed= 1.3x    
frame= 2203 fps= 31 q=28.0 size=N/A time=00:01:31.88 bitrate=N/A speed= 1.3x    
frame= 2223 fps= 31 q=28.0 size=N/A time=00:01:32.71 bitrate=N/A speed= 1.3x    
frame= 2248 fps= 31 q=28.0 size=N/A time=00:01:33.76 bitrate=N/A speed=1.31x    
frame= 2276 fps= 32 q=28.0 size=N/A time=00:01:34.89 bitrate=N/A speed=1.31x    
[hls @ 0x5638d27c7c40] Opening '/config/data/transcodes/5649425cf0d522a564d3754a5926e5c1542.ts' for writing
frame= 2300 fps= 32 q=28.0 size=N/A time=00:01:35.87 bitrate=N/A speed=1.32x    
frame= 2321 fps= 32 q=28.0 size=N/A time=00:01:36.81 bitrate=N/A speed=1.32x    
frame= 2344 fps= 32 q=28.0 size=N/A time=00:01:37.77 bitrate=N/A speed=1.33x    
frame= 2372 fps= 32 q=28.0 size=N/A time=00:01:38.92 bitrate=N/A speed=1.33x    
frame= 2391 fps= 32 q=28.0 size=N/A time=00:01:39.71 bitrate=N/A speed=1.33x    
frame= 2405 fps= 32 q=28.0 size=N/A time=00:01:40.28 bitrate=N/A speed=1.33x    
frame= 2423 fps= 32 q=28.0 size=N/A time=00:01:41.05 bitrate=N/A speed=1.33x    
frame= 2440 fps= 32 q=28.0 size=N/A time=00:01:41.76 bitrate=N/A speed=1.33x    
frame= 2456 fps= 32 q=28.0 size=N/A time=00:01:42.44 bitrate=N/A speed=1.33x    
frame= 2473 fps= 32 q=28.0 size=N/A time=00:01:43.14 bitrate=N/A speed=1.33x    
frame= 2495 fps= 32 q=28.0 size=N/A time=00:01:44.04 bitrate=N/A speed=1.34x    
frame= 2511 fps= 32 q=28.0 size=N/A time=00:01:44.70 bitrate=N/A speed=1.34x    
frame= 2521 fps= 32 q=28.0 size=N/A time=00:01:45.13 bitrate=N/A speed=1.33x    
[hls @ 0x5638d27c7c40] Opening '/config/data/transcodes/5649425cf0d522a564d3754a5926e5c1543.ts' for writing
frame= 2539 fps= 32 q=28.0 size=N/A time=00:01:45.89 bitrate=N/A speed=1.33x    
frame= 2556 fps= 32 q=28.0 size=N/A time=00:01:46.60 bitrate=N/A speed=1.33x    
frame= 2574 fps= 32 q=28.0 size=N/A time=00:01:47.32 bitrate=N/A speed=1.33x    
frame= 2587 fps= 32 q=28.0 size=N/A time=00:01:47.90 bitrate=N/A speed=1.33x    

[q] command received. Exiting.

[hls @ 0x5638d27c7c40] Opening '/config/data/transcodes/5649425cf0d522a564d3754a5926e5c1544.ts' for writing
frame= 2603 fps= 32 q=-1.0 Lsize=N/A time=00:01:48.56 bitrate=N/A speed=1.33x    
video:18829kB audio:5104kB subtitle:0kB other streams:0kB global headers:0kB muxing overhead: unknown
[libx264 @ 0x5638d27c8bc0] frame I:11    Avg QP:16.31  size: 66048
[libx264 @ 0x5638d27c8bc0] frame P:694   Avg QP:19.03  size: 18244
[libx264 @ 0x5638d27c8bc0] frame B:1898  Avg QP:21.07  size:  3105
[libx264 @ 0x5638d27c8bc0] consecutive B-frames:  1.3%  3.2%  3.5% 92.0%
[libx264 @ 0x5638d27c8bc0] mb I  I16..4: 52.1%  0.0% 47.9%
[libx264 @ 0x5638d27c8bc0] mb P  I16..4: 26.7%  0.0%  0.0%  P16..4: 31.4%  0.0%  0.0%  0.0%  0.0%    skip:41.9%
[libx264 @ 0x5638d27c8bc0] mb B  I16..4:  2.1%  0.0%  0.0%  B16..8:  9.5%  0.0%  0.0%  direct: 4.6%  skip:83.8%  L0:40.6% L1:52.0% BI: 7.4%
[libx264 @ 0x5638d27c8bc0] coded y,uvDC,uvAC intra: 11.7% 34.7% 4.8% inter: 2.7% 8.5% 0.1%
[libx264 @ 0x5638d27c8bc0] i16 v,h,dc,p: 45% 25% 14% 15%
[libx264 @ 0x5638d27c8bc0] i4 v,h,dc,ddl,ddr,vr,hd,vl,hu: 27% 24% 16%  8%  6%  4%  5%  4%  5%
[libx264 @ 0x5638d27c8bc0] i8c dc,h,v,p: 47% 23% 23%  7%
[libx264 @ 0x5638d27c8bc0] Weighted P-Frames: Y:15.0% UV:5.3%
[libx264 @ 0x5638d27c8bc0] kb/s:1420.73